<svg width="24" height="14" viewBox="0 0 24 14" fill="none" xmlns="http://www.w3.org/2000/svg">
<path opacity="0.32" fill-rule="evenodd" clip-rule="evenodd" d="M14.6441 9.76299C15.3161 9.05991 15.7347 8.0793 15.7347 7C15.7347 5.9207 15.3161 4.94009 14.6441 4.237C13.9661 3.52775 13.0287 3.08987 11.9971 3.08987C10.9654 3.08987 10.028 3.52775 9.35593 4.23084V4.237C8.67797 4.94009 8.2594 5.91454 8.2594 7C8.2594 8.0793 8.67797 9.05374 9.35593 9.76299C10.0339 10.4722 10.9654 10.9101 11.9971 10.9101C13.0346 10.9101 13.9661 10.4722 14.6441 9.76299ZM17.1201 7C17.1201 8.47401 16.5483 9.81233 15.6227 10.7868H15.6168C14.6912 11.7551 13.4119 12.3533 11.9971 12.3533C10.5822 12.3533 9.30287 11.7551 8.3773 10.7868C7.45173 9.8185 6.87988 8.48018 6.87988 7C6.87988 5.52599 7.45173 4.1815 8.3773 3.21322H8.3832C9.30877 2.23877 10.5881 1.64053 11.9971 1.64053C13.4119 1.64053 14.6912 2.23877 15.6227 3.21322C16.5483 4.1815 17.1201 5.51982 17.1201 7ZM5.02284 11.6749C7.06853 13.0626 9.3913 14 11.9971 14C14.6087 14 16.9315 13.0626 18.9713 11.6749C20.8814 10.3859 22.5556 8.69604 24 7C22.3788 5.13128 20.3272 3.26256 18.087 1.92423C16.1356 0.75859 14.0486 0 11.9971 0C9.94547 0 7.85851 0.75859 5.90715 1.92423C3.67281 3.26256 1.62122 5.13128 0 7C1.44436 8.69604 3.11864 10.3859 5.02284 11.6749Z" fill="black"/>
</svg>
