<svg width="24" height="22" viewBox="0 0 24 22" fill="none" xmlns="http://www.w3.org/2000/svg">
<path d="M22.248 0.244185L0.934001 9.11514C0.934001 9.11514 -0.0736944 9.48145 0.00430525 10.157C0.0844049 10.8338 0.906701 11.1434 0.906701 11.1434L6.26978 13.058C6.26978 13.058 7.88857 18.6896 8.20717 19.7612C8.52577 20.8298 8.78137 20.855 8.78137 20.855C9.07806 20.9918 9.34776 20.774 9.34776 20.774L12.8127 17.4233L18.213 21.8159C19.6737 22.4918 20.2053 21.0836 20.2053 21.0836L24 0.780283C24 -0.572111 22.248 0.244185 22.248 0.244185ZM18.4746 19.4507L12.6972 14.7527L10.9045 16.4858L11.2987 12.7985L18.9996 5.49986L8.50237 11.732L3.84609 10.07L21.6111 2.67567L18.4746 19.4507Z" fill="black"/>
</svg>
