<svg width="26" height="15" viewBox="0 0 26 15" fill="none" xmlns="http://www.w3.org/2000/svg">
<path fill-rule="evenodd" clip-rule="evenodd" d="M25.4034 1.0157C25.5841 0.430218 25.4034 0 24.5432 0H21.6988C20.9756 0 20.6421 0.371645 20.4613 0.781459C20.4613 0.781459 19.0148 4.2065 16.9657 6.43129C16.3027 7.0753 16.0014 7.2802 15.6397 7.2802C15.459 7.2802 15.1877 7.0753 15.1877 6.48986V1.0157C15.1877 0.313121 14.9873 0 14.3846 0H9.91481C9.46285 0 9.19103 0.326083 9.19103 0.635125C9.19103 1.30116 10.2155 1.45475 10.3212 3.3283V7.39735C10.3212 8.28947 10.1553 8.45122 9.79368 8.45122C8.82941 8.45122 6.48383 5.01088 5.09268 1.07423C4.82004 0.309077 4.5466 0 3.81965 0H0.975236C0.162548 0 0 0.371645 0 0.781459C0 1.51333 0.96432 5.14327 4.49003 9.94414C6.84048 13.2228 10.1521 15 13.1656 15C14.9736 15 15.1973 14.6053 15.1973 13.9253V11.4474C15.1973 10.6579 15.3686 10.5003 15.9411 10.5003C16.363 10.5003 17.0862 10.7052 18.7738 12.286C20.7024 14.1595 21.0203 15 22.1051 15H24.9495C25.7622 15 26.1686 14.6053 25.9342 13.8263C25.6777 13.0499 24.7569 11.9234 23.535 10.5881C22.872 9.82704 21.8776 9.00742 21.5763 8.5975C21.1544 8.07064 21.2749 7.8364 21.5763 7.36806C21.5763 7.36806 25.0418 2.62572 25.4034 1.0157Z" fill="#999999"/>
</svg>
