<svg width="24" height="24" viewBox="0 0 24 24" fill="none" xmlns="http://www.w3.org/2000/svg">
<path fill-rule="evenodd" clip-rule="evenodd" d="M12 0C5.36725 0 0 5.36426 0 12C0 14.5025 0.763159 16.8173 2.11875 18.8063C2.16921 18.881 2.20215 18.9662 2.21514 19.0555C2.22812 19.1448 2.22081 19.2358 2.19375 19.3219L0.975 23.4L4.96875 22.0219C5.05412 21.9935 5.14479 21.9846 5.23404 21.9959C5.32329 22.0073 5.40885 22.0386 5.48438 22.0875C7.35504 23.3013 9.59447 24 12 24C18.6359 24 24 18.6359 24 12C24 5.36408 18.6359 0 12 0ZM7.0875 5.23125L9.27188 8.84064L8.3625 9.74064C8.26992 9.83406 8.21059 9.9553 8.19365 10.0857C8.17671 10.2162 8.2031 10.3485 8.26875 10.4625C9.6565 12.8657 11.3008 14.7353 13.6031 15.75C13.7135 15.799 13.836 15.8136 13.9548 15.7919C14.0735 15.7701 14.1829 15.7131 14.2688 15.6281L15.2344 14.6625L18.7594 16.8656C18.369 17.7441 17.8602 18.2671 17.2781 18.5719C16.6039 18.9249 15.7804 18.9918 14.8406 18.7969C12.9611 18.4071 10.6908 16.93 8.84063 15.0375C6.99049 13.1451 5.55875 10.8439 5.19375 8.97186C5.01125 8.03586 5.09188 7.22976 5.4375 6.59064C5.73509 6.04035 6.24059 5.56923 7.0875 5.23125Z" fill="black"/>
</svg>
