<svg width="152" height="45" viewBox="0 0 152 45" fill="none" xmlns="http://www.w3.org/2000/svg">
<path fill-rule="evenodd" clip-rule="evenodd" d="M106.389 22.0834C105.451 22.0834 104.689 22.8481 104.689 23.7826C104.689 24.7263 105.451 25.4835 106.389 25.4835C107.325 25.4835 108.086 24.7263 108.086 23.7826C108.086 22.8481 107.325 22.0834 106.389 22.0834ZM47.5125 23.699C47.5125 23.699 48.3601 20.8618 48.4891 20.4174C48.8317 19.2631 49.3442 17.4458 49.3442 17.4458H49.4282C49.4282 17.4458 49.9001 19.3294 50.2082 20.4008C50.3287 20.8174 51.1384 23.699 51.1384 23.699H47.5125ZM52.6721 28.8505H55.7388L51.1071 14.6945C50.6199 14.53 50.0109 14.4271 49.368 14.4271C48.6659 14.4271 48.4154 14.5202 47.8646 14.6945L42.9529 28.8505H45.8903C45.8903 28.8505 46.2844 27.6109 46.7657 26.0708H51.8451C52.3027 27.6099 52.6721 28.8505 52.6721 28.8505ZM151.888 28.8505C151.888 28.8505 150.436 25.7513 150.08 25.0506C149.679 24.2551 149.31 23.7064 148.49 23.5115V23.4648C149.039 23.3612 149.476 23.0281 149.948 22.016C150.403 21.0256 150.538 20.8141 150.804 20.5802C151.066 20.3429 151.423 20.4333 151.423 20.4333L151.558 18.5898C151.176 18.5391 150.754 18.5384 150.319 18.5621C149.6 18.6068 149.224 18.8109 148.872 19.1707C148.596 19.4445 148.406 19.8531 148.172 20.332C147.921 20.8438 147.725 21.2578 147.474 21.7791C147.218 22.3125 147.093 22.5508 146.404 22.5508H145.957V18.7235H143.284V28.8505H145.957V24.7124L146.321 24.7063C147.081 24.7063 147.211 24.8959 147.614 25.6971C148.089 26.655 148.987 28.8505 148.987 28.8505H151.888ZM140.962 28.8505V18.7235H138.3V22.5525H135.285V18.7235H132.627V28.8505H135.285V24.7151H138.3V28.8505H140.962ZM67.806 18.6315L67.7952 28.318C69.0572 28.8505 70.4435 29.0905 71.6754 29.0905C74.5021 29.0905 76.0147 27.6296 76.0147 25.2215C76.0147 23.0427 74.6758 21.6948 72.1734 21.6948C71.5376 21.6948 71.1649 21.7791 70.4668 21.9467V18.6315H67.806ZM73.2622 25.3451C73.2622 26.3443 72.9101 27.0287 71.6318 27.0287C71.2012 27.0287 71.0242 27.0287 70.4656 26.8724V23.9519C71.1592 23.8168 71.2205 23.7941 71.6318 23.7941C72.8536 23.7941 73.2622 24.3882 73.2622 25.3451ZM131.233 27.8787C130.528 26.8104 130.345 26.1801 130.345 24.8363V22.1084C130.345 20.6347 130.176 20.0941 129.787 19.5539C129.246 18.796 128.346 18.4683 126.684 18.4683C125.51 18.4683 124.361 18.5953 123.261 18.8752L123.655 20.8289C124.4 20.7247 125.185 20.6347 125.747 20.6347C127.507 20.6347 127.71 20.8916 127.71 22.2113V22.7062C127.319 22.6009 126.88 22.5251 126.366 22.5251C123.705 22.5251 122.304 23.8229 122.304 25.9655C122.304 27.9792 123.801 29.0786 125.634 29.0786C126.317 29.0786 127.026 28.9517 127.588 28.7246C127.928 28.5749 128.076 28.4907 128.514 28.2009C128.78 28.5909 129.313 28.9849 129.529 29.0559L131.233 27.8787ZM127.849 26.7112C127.265 26.9136 126.88 26.9604 126.416 26.9604C125.463 26.9604 124.926 26.5843 124.926 25.6077C124.926 24.5916 125.608 24.2474 126.928 24.2474C127.248 24.2474 127.564 24.2958 127.71 24.3476V25.0763C127.71 25.8623 127.753 26.3765 127.849 26.7112ZM101.865 27.8787C101.163 26.8104 100.98 26.1801 100.98 24.8363V22.1084C100.98 20.6347 100.81 20.0941 100.419 19.5539C99.8803 18.796 98.9788 18.4683 97.3176 18.4683C96.1463 18.4683 94.994 18.5953 93.8931 18.8752L94.2878 20.8289C95.0366 20.7247 95.8162 20.6347 96.3802 20.6347C98.143 20.6347 98.3461 20.8916 98.3461 22.2113V22.7062C97.9544 22.6009 97.513 22.5251 97.0004 22.5251C94.3372 22.5251 92.936 23.8229 92.936 25.9655C92.936 27.9792 94.4327 29.0786 96.2682 29.0786C96.9496 29.0786 97.6609 28.9517 98.2232 28.7246C98.5614 28.5749 98.709 28.4907 99.1494 28.2009C99.4152 28.5909 99.945 28.9849 100.162 29.0559L101.865 27.8787ZM98.4829 26.7112C97.898 26.9136 97.5131 26.9604 97.051 26.9604C96.0987 26.9604 95.5574 26.5843 95.5574 25.6077C95.5574 24.5916 96.2405 24.2474 97.5598 24.2474C97.877 24.2474 98.1966 24.2958 98.3462 24.3476V25.0763C98.3462 25.8623 98.3848 26.3765 98.4829 26.7112ZM65.696 28.8505V19.0925C64.2346 18.6572 63.1103 18.4683 61.6438 18.4683C60.1786 18.4683 59.0821 18.6572 57.62 19.0925V24.0886C57.62 25.4473 57.5967 25.8548 57.4487 26.2939C57.3015 26.6787 57.1041 27.1408 56.5679 27.4979L57.2933 29.0559C59.4305 28.4524 60.2355 27.5226 60.2355 24.5672V20.8916C60.9417 20.7883 61.0812 20.7646 61.6438 20.7646C62.2102 20.7646 62.3283 20.7883 63.0324 20.8916V28.8505H65.696ZM85.8377 32.1677V28.5292C86.1749 28.7286 86.8472 29.0231 87.9809 29.0231C90.2352 29.0231 91.8964 27.1499 91.8964 23.7268C91.8964 20.0396 90.246 18.4612 87.5337 18.4612C86.8445 18.4612 86.3959 18.532 85.8377 18.798V14.4508H83.1867V18.798C82.6291 18.532 82.1779 18.4612 81.4896 18.4612C78.7773 18.4612 77.126 20.1049 77.126 23.7897C77.126 27.2142 78.6189 29.0231 81.0384 29.0231C82.1768 29.0231 82.8495 28.7286 83.1867 28.5292V32.1677H85.8377ZM79.8596 23.7897C79.8596 21.7571 80.472 20.6824 81.6931 20.6824C82.2087 20.6824 82.5509 20.6793 83.1867 20.9833V26.5748C82.6095 26.764 82.3366 26.7898 81.8221 26.7898C80.4304 26.7898 79.8596 25.6541 79.8596 23.7897ZM89.1643 23.7268C89.1643 25.5891 88.4226 26.7898 87.2015 26.7898C86.689 26.7898 86.4171 26.764 85.8379 26.5748V20.9833C86.4736 20.6793 86.8159 20.6824 87.3295 20.6824C88.5522 20.6824 89.1643 21.6928 89.1643 23.7268ZM121.288 24.4545C121.288 21.9456 119.818 20.217 116.73 20.217C115.971 20.217 115.441 20.2894 114.623 20.4827L114.617 16.8713C115.126 16.7989 115.998 16.7353 116.958 16.7353C117.866 16.7353 119.017 16.785 120.027 16.9082L120.097 14.8153C118.949 14.5581 117.285 14.401 115.994 14.401C114.721 14.401 112.743 14.7192 111.801 14.9741L111.8 28.3231C113.268 28.8603 114.702 29.1064 116.173 29.1064C119.541 29.1064 121.288 27.3215 121.288 24.4545ZM118.456 24.6566C118.456 26.0095 117.708 26.8998 116.328 26.8998C115.783 26.8998 115.336 26.9015 114.623 26.7072V22.6118C114.938 22.56 115.587 22.4591 116.328 22.4859C117.731 22.539 118.456 23.194 118.456 24.6566ZM14.4055 7.10828L10.4224 19.0654H18.452L14.4553 7.10828H14.4055ZM0.446277 38.9466C0.19915 38.9466 -0.000244141 39.1511 -0.000244141 39.4039V44.4884C-0.000244141 44.7422 0.19915 44.9453 0.446277 44.9453H28.4126C28.6577 44.9453 28.8554 44.7422 28.8554 44.4884V39.4039C28.8554 39.1511 28.6577 38.9466 28.4126 38.9466H0.446277ZM14.4294 0C17.49 0 18.4521 2.19172 19.2561 4.38615C19.5974 5.31395 27.5471 27.0809 27.7847 27.7338C27.8514 27.9139 27.8074 28.2148 27.5267 28.3221C27.2451 28.4291 23.1137 30.0355 22.8858 30.1212C22.6573 30.2071 22.4 30.0802 22.3161 29.8531C22.2315 29.6273 20.5195 24.8827 20.3259 24.3513H8.54739C8.35376 24.8827 6.62387 29.6358 6.54397 29.8531C6.46476 30.0704 6.21729 30.217 5.97592 30.1212C5.73353 30.0247 1.58383 28.4172 1.33874 28.3221C1.10109 28.2317 0.992081 27.9619 1.07637 27.7338C1.36886 26.9167 9.19703 5.50012 9.59819 4.38615C10.3724 2.22692 11.3701 0 14.4294 0Z" fill="#ED3523"/>
</svg>
