<svg width="152" height="28" viewBox="0 0 152 28" fill="none" xmlns="http://www.w3.org/2000/svg">
<path fill-rule="evenodd" clip-rule="evenodd" d="M15.15 14.25V0.350006C21.85 1.15001 27 6.90001 27 13.75C27 21.2 20.95 27.25 13.5 27.25C13.2684 27.25 13.05 27.2235 12.838 27.1978C12.7856 27.1915 12.7336 27.1852 12.682 27.1793C12.5364 27.1628 12.3932 27.15 12.25 27.15V15.5C12.25 15.45 12.3 15.35 12.4 15.35H14.05C14.65 15.35 15.15 14.9 15.15 14.25ZM13.2 19.5C13.2 20.35 13.8999 21.15 14.85 21.15C15.7999 21.15 16.6 20.4 16.5 19.5C16.5 18.65 15.7999 17.85 14.85 17.85C14 17.85 13.2 18.55 13.2 19.5ZM18.8 21.15C17.85 21.15 17.15 20.35 17.15 19.5C17.15 18.55 17.9501 17.85 18.8 17.85C19.75 17.85 20.4501 18.65 20.4501 19.5C20.4501 20.35 19.8 21.15 18.8 21.15ZM21.15 19.5C21.15 20.35 21.85 21.15 22.8 21.15C23.75 21.15 24.4501 20.35 24.4501 19.5C24.4501 18.65 23.75 17.85 22.8 17.85C21.9501 17.85 21.15 18.55 21.15 19.5Z" fill="#00B956"/>
<path fill-rule="evenodd" clip-rule="evenodd" d="M0 13.8C0 6.35001 6.05005 0.300003 13.5 0.300003L13.45 13.55C13.45 13.6 13.4 13.7 13.3 13.7H12.2H11.65C11.15 13.8 10.65 14.25 10.65 14.8V26.95C4.55005 25.7 0 20.35 0 13.8ZM9.25 9.75C9.25 10.6 9.94995 11.4 10.9 11.4C11.8 11.4 12.55 10.6 12.55 9.75C12.55 8.90001 11.85 8.10001 10.9 8.10001C10.05 8.10001 9.25 8.8 9.25 9.75Z" fill="#00B956"/>
<path d="M148.65 7.65001V12.75H141.85V7.65001H138.4V21.15H141.85V15.7H148.65V21.15H152V7.65001H148.65Z" fill="#00B956"/>
<path fill-rule="evenodd" clip-rule="evenodd" d="M52.25 5.25C50.65 5.25 49.65 6.1 48.9 7.8L44.55 17.95L40.15 7.75C39.45 6.1 38.4 5.2 36.8 5.2C35.3 5.2 33.8 6.2 33.8 8.55V21.1H37.15V9L41.6 19.05C42.15 20.5 43.2 21.35 44.55 21.35C46 21.35 46.95 20.5 47.5 19.05L51.95 9V21.25H55.3V8.7C55.25 6.35 53.75 5.25 52.25 5.25ZM89.7001 7.35C90.8 7.35 91.9 8 92.4501 9.2L98.1001 21.2H94.5L93.3 18.35H86.3L85.1 21.2H81.5L86.9501 9.2C87.4501 8 88.6 7.35 89.7001 7.35ZM89.3 10.7L87.25 15.65H91.85L89.8 10.7C89.8 10.55 89.6501 10.55 89.55 10.55C89.4501 10.55 89.4001 10.55 89.3 10.7ZM60.85 17.95C60.85 18.15 61.05 18.3 61.2 18.3V18.15H69.55V21H59.55C58.4 21 57.55 20 57.55 19V9.55C57.55 8.5 58.35 7.55 59.55 7.55H69.55V10.4H61.2C61 10.4 60.85 10.6 60.85 10.75V12.8H69.25V15.55H60.85V17.95ZM75.2 21.15V10.85C75.2 10.7 75.35 10.5 75.55 10.5H83.9V7.65H73.9C72.7 7.65 71.9 8.6 71.9 9.65V21.1L75.2 21.15ZM129.05 7.55C134.15 7.55 136.2 9.75 136.2 14.45C136.2 19.05 134.15 21.25 128.95 21.35H127.85C122.75 21.35 120.7 19.05 120.7 14.45C120.7 9.8 122.75 7.55 127.85 7.55H129.05ZM128.95 18.5H127.85C125.1 18.5 123.95 17.25 123.95 14.45C123.95 11.75 124.9 10.4 127.85 10.4H128.95C131.8 10.4 132.85 11.75 132.85 14.45C132.85 17.2 131.8 18.5 128.95 18.5ZM104.65 5.55H111.35C116.25 5.55 118.3 8.1 118.35 12.45C118.35 13.15 118.3 13.8 118.2 14.35C117.7 17.45 115.85 19.35 111.15 19.35H109.7V21.1H106.35V19.35H104.85C100.2 19.35 98.35 17.45 97.8 14.35C97.7866 14.2017 97.7695 14.0462 97.7516 13.8843L97.7516 13.8839C97.7034 13.4456 97.65 12.9611 97.65 12.45C97.65 8.1 99.65 5.55 104.65 5.55ZM106.25 16.55H104.75C102.45 16.55 101.65 15.7 101.15 14.3C101 13.8 101 13.1 101 12.4C101 9.55 102.35 8.35 104.25 8.35H106.3V16.55H106.25ZM111.25 16.7C113.5 16.7 114.35 15.8 114.85 14.45C114.967 13.9808 114.993 13.5116 115.022 12.9708C115.031 12.8199 115.039 12.6635 115.05 12.5C115.05 9.65 113.7 8.45 111.8 8.45H109.75V16.7H111.25Z" fill="#00B956"/>
</svg>
