<svg width="152" height="42" viewBox="0 0 152 42" fill="none" xmlns="http://www.w3.org/2000/svg">
<path d="M17.7475 31.8095H13.0411L3.79492 21.7309H3.71487V31.8095H0.360229V10.8396H3.71487V20.4384H3.79492L12.5972 10.8396H16.9875L7.27471 20.9507L17.7475 31.8095Z" fill="#010101"/>
<path d="M86.5756 31.8095H83.2114V22.2878H72.543V31.8095H69.1818V10.8396H72.543V19.4342H83.2114V10.8396H86.5756V31.8095Z" fill="#010101"/>
<path d="M106.506 13.7003H100.219V31.8095H96.8767V13.7003H90.5697V10.8396H106.506V13.7003Z" fill="#010101"/>
<path fill-rule="evenodd" clip-rule="evenodd" d="M135.863 28.7704H135.946C137.416 31.1249 139.512 32.2965 142.221 32.2965C145.179 32.2965 147.512 31.2401 149.212 29.1351C150.928 27.0169 151.768 24.214 151.768 20.7012C151.768 17.5527 151.017 15.0445 149.512 13.1691C147.991 11.2812 145.876 10.3469 143.186 10.3469C140.007 10.3469 137.594 11.7296 135.946 14.5193H135.863V10.8397H132.508V41.4472H135.863V28.7704ZM128.91 10.8398L119.277 35.1567C117.562 39.5019 115.146 41.6708 112.034 41.6708C111.168 41.6708 110.433 41.5876 109.855 41.4089V38.5735C110.472 38.7817 111.047 38.7746 111.572 38.7681C111.661 38.767 111.75 38.766 111.836 38.766C113.529 38.766 114.788 37.7672 115.638 35.745L117.312 31.765L109.133 10.8398H112.852L118.514 26.9787C118.591 27.1835 118.737 27.7077 118.948 28.5653H119.069C119.14 28.2458 119.277 27.7334 119.479 27.0171L125.431 10.8398H128.91ZM135.863 20.3108V23.2413C135.863 24.9819 136.425 26.4538 137.556 27.6564C138.681 28.8664 140.106 29.4807 141.838 29.4807C143.87 29.4807 145.461 28.6936 146.611 27.1449C147.764 25.5835 148.343 23.4141 148.343 20.6367C148.343 18.3073 147.797 16.4771 146.723 15.1529C145.646 13.8282 144.183 13.1691 142.343 13.1691C140.4 13.1691 138.828 13.8538 137.64 15.2105C136.463 16.5671 135.863 18.2753 135.863 20.3108Z" fill="#010101"/>
<path fill-rule="evenodd" clip-rule="evenodd" d="M26.5052 9.91174C28.646 4.31912 34.0619 0.332275 40.3879 0.332275C45.1418 0.332275 49.4363 2.54007 52.1746 6.14249C59.4176 6.6165 65.1813 12.6699 65.1813 20.0484C65.1813 27.7332 58.9351 33.9663 51.2671 33.9663H30.8762C24.0354 33.9663 18.4634 28.3928 18.4634 21.5331C18.4634 16.2216 21.8119 11.678 26.5052 9.91174ZM49.5066 8.18436C47.3375 5.33022 44.0172 3.69197 40.3879 3.69197C35.6527 3.69197 31.3364 6.6613 29.6429 11.102L29.0966 12.5163L27.6907 13.047C24.1824 14.3785 21.8152 17.789 21.8152 21.5331C21.8152 26.5434 25.8822 30.6198 30.8763 30.6198H51.2671C57.0979 30.6198 61.8331 25.8646 61.8331 20.0484C61.8331 14.4809 57.4973 9.84776 51.9604 9.4894L50.4423 9.3934L49.5066 8.18436Z" fill="#D70C17"/>
</svg>
