<svg width="24" height="18" viewBox="0 0 24 18" fill="none" xmlns="http://www.w3.org/2000/svg">
<path fill-rule="evenodd" clip-rule="evenodd" d="M0 9C1.44472 10.5818 3.11794 12.1564 5.02703 13.3643C5.27027 13.5153 5.51351 13.6663 5.76413 13.8029L3.22113 16.2834L3.04423 16.4632C2.68305 16.8155 2.68305 17.3835 3.04423 17.7358C3.40541 18.0881 3.98771 18.0881 4.34889 17.7358L4.5258 17.5632V17.556L7.51843 14.6441C8.90418 15.1977 10.4005 15.5213 12 15.5213C14.6093 15.5213 16.9312 14.6513 18.973 13.3643C20.8821 12.1564 22.5553 10.5818 24 9C22.3857 7.26723 20.3514 5.54164 18.1327 4.29059L20.9558 1.53685C21.317 1.18454 21.317 0.616537 20.9558 0.26423C20.5946 -0.0880767 20.0123 -0.0880767 19.6511 0.26423L16.3931 3.44218C14.9558 2.83823 13.4668 2.47154 12 2.47154C9.95086 2.47154 7.85749 3.18334 5.91155 4.26902C3.67076 5.52007 1.62162 7.25285 0 9H0ZM7.78378 11.84C7.21622 11.0348 6.87715 10.0569 6.87715 9C6.87715 7.62672 7.45209 6.37567 8.38084 5.46974C9.33907 4.52786 10.6364 4.003 12 4.003C13.0835 4.003 14.086 4.33373 14.9115 4.88736L13.9091 5.86519C13.3489 5.54164 12.7002 5.3547 12 5.3547C10.9681 5.3547 10.0319 5.75734 9.35381 6.41881C8.68305 7.08029 8.2629 7.99341 8.2629 9C8.2629 9.67585 8.45455 10.3158 8.78624 10.8622L7.78378 11.84V11.84ZM16.2162 6.15998L15.2138 7.13781C15.5455 7.68424 15.7371 8.31696 15.7371 9C15.7371 10.0066 15.317 10.9197 14.6462 11.5812C13.9681 12.2355 13.0319 12.6453 12 12.6453C11.2998 12.6453 10.6511 12.4584 10.0909 12.1348L9.08845 13.1126C9.91401 13.6663 10.9165 13.997 12 13.997C13.4079 13.997 14.6904 13.4362 15.6192 12.5303C16.5479 11.6243 17.1228 10.3733 17.1228 9C17.1228 7.94308 16.7838 6.96525 16.2162 6.15998V6.15998Z" fill="#999999"/>
</svg>
