<svg width="15" height="15" viewBox="0 0 15 15" fill="none" xmlns="http://www.w3.org/2000/svg">
<path fill-rule="evenodd" clip-rule="evenodd" d="M10.043 9.43408H10.7202L15 13.7222L13.7222 15L9.43408 10.7202V10.043L9.20264 9.80273C8.22461 10.6431 6.95557 11.1494 5.57471 11.1494C2.49561 11.1494 0 8.65332 0 5.57471C0 2.49561 2.49561 0 5.57471 0C8.65332 0 11.1494 2.49561 11.1494 5.57471C11.1494 6.95557 10.6431 8.22461 9.80273 9.20264L10.043 9.43408ZM1 5.5C1 7.99023 3.00977 10 5.5 10C7.99023 10 10 7.99023 10 5.5C10 3.00977 7.99023 1 5.5 1C3.00977 1 1 3.00977 1 5.5Z" fill="#999999"/>
</svg>
