<svg width="24" height="20" viewBox="0 0 24 20" fill="none" xmlns="http://www.w3.org/2000/svg">
<path d="M24 2.30078C23.1016 2.69922 22.1992 3 21.1992 3.10156C22.1992 2.5 23 1.5 23.3984 0.398438C22.3984 1 21.3984 1.39844 20.3008 1.60156C19.3008 0.601563 18 0 16.6016 0C13.8984 0 11.6992 2.19922 11.6992 4.89844C11.6992 5.30078 11.6992 5.69922 11.8008 6C7.69922 5.80078 4.10156 3.89844 1.69922 0.898438C1.19922 1.60156 1 2.5 1 3.39844C1 5.10156 1.89844 6.60156 3.19922 7.5C2.39844 7.39844 1.60156 7.19922 1 6.89844C1 6.89844 1 6.89844 1 7C1 9.39844 2.69922 11.3984 4.89844 11.8008C4.5 11.8984 4.10156 12 3.60156 12C3.30078 12 3 12 2.69922 11.8984C3.30078 13.8984 5.10156 15.3008 7.30078 15.3008C5.60156 16.6016 3.5 17.3984 1.19922 17.3984C0.800781 17.3984 0.398438 17.3984 0 17.3008C2.19922 18.6992 4.80078 19.5 7.5 19.5C16.6016 19.5 21.5 12 21.5 5.5C21.5 5.30078 21.5 5.10156 21.5 4.89844C22.5 4.19922 23.3008 3.30078 24 2.30078Z" fill="#999999"/>
</svg>
