<svg width="24" height="24" viewBox="0 0 24 24" fill="none" xmlns="http://www.w3.org/2000/svg">
<path d="M12.5039 6.50977H17.0951C17.4975 8.14087 17.7157 9.81224 17.7455 11.4923H12.5039V6.50977Z" fill="black"/>
<path d="M6.23999 12.5059H11.4912V17.4908H6.97919C6.96775 17.4933 6.95591 17.4932 6.94449 17.4906C6.93307 17.4881 6.92233 17.4831 6.913 17.476C6.90366 17.469 6.89596 17.4599 6.8904 17.4496C6.88484 17.4393 6.88157 17.4279 6.88079 17.4162C6.6854 16.6312 6.53793 15.835 6.43919 15.032C6.37439 14.4998 6.33599 13.9676 6.29279 13.433C6.26879 13.144 6.26399 12.8526 6.24959 12.5637C6.23999 12.5468 6.23999 12.5299 6.23999 12.5059Z" fill="black"/>
<path d="M6.26392 11.4916C6.26392 11.323 6.26392 11.1592 6.26392 10.9955C6.31432 10.3453 6.35992 9.69264 6.42952 9.04484C6.52491 8.20969 6.67565 7.38185 6.88072 6.56681C6.88095 6.55792 6.88307 6.54917 6.88694 6.54117C6.89081 6.53316 6.89633 6.52607 6.90315 6.52037C6.90996 6.51467 6.9179 6.5105 6.92645 6.50813C6.935 6.50575 6.94395 6.50524 6.95272 6.50661H11.4575H11.4911V11.4916H6.26392Z" fill="black"/>
<path d="M17.7311 12.5078C17.7311 12.674 17.7311 12.8353 17.7311 12.9895C17.6807 13.6421 17.6327 14.2971 17.5655 14.9497C17.4693 15.7841 17.3178 16.6112 17.1119 17.4253C17.1116 17.4342 17.1095 17.443 17.1056 17.451C17.1018 17.459 17.0962 17.4661 17.0894 17.4718C17.0826 17.4775 17.0747 17.4816 17.0661 17.484C17.0576 17.4864 17.0486 17.4869 17.0399 17.4855H12.5351H12.5015V12.5078H17.7311Z" fill="black"/>
<path d="M5.8488 6.51137C5.47678 8.14591 5.27649 9.81507 5.2512 11.4915H0C0 11.3518 0 11.217 0.0216 11.0821C0.140476 9.5086 0.567851 7.97413 1.2792 6.56676C1.28701 6.54696 1.30113 6.53031 1.31937 6.51941C1.33761 6.50852 1.35893 6.504 1.38 6.50656H5.8488V6.51137Z" fill="black"/>
<path d="M0 12.5059H5.2512C5.27703 14.184 5.47813 15.8548 5.8512 17.4908H1.3944C1.36836 17.4935 1.34218 17.4873 1.32001 17.4734C1.29784 17.4594 1.28095 17.4384 1.272 17.4137C0.797144 16.4621 0.45012 15.4515 0.24 14.4083C0.112847 13.8111 0.0326007 13.2048 0 12.595C0 12.5661 0 12.5372 0 12.5059Z" fill="black"/>
<path d="M24 11.4943H18.744C18.719 9.81609 18.5179 8.14522 18.144 6.50931H22.6008C22.6272 6.50681 22.6536 6.5133 22.6758 6.52772C22.698 6.54214 22.7147 6.56365 22.7232 6.58878C23.4667 8.06561 23.8973 9.68089 23.988 11.3329C24 11.3811 24 11.4341 24 11.4943Z" fill="black"/>
<path d="M24 12.5059C23.9808 12.7635 23.9664 13.014 23.94 13.262C23.8869 13.7761 23.8003 14.2861 23.6808 14.7888C23.4655 15.7065 23.1433 16.5957 22.7208 17.4378C22.715 17.4558 22.7033 17.4712 22.6876 17.4817C22.6719 17.4922 22.6532 17.4971 22.6344 17.4956H18.144C18.5183 15.8582 18.7194 14.1857 18.744 12.5059H24Z" fill="black"/>
<path d="M11.4912 23.9996C10.9289 23.8791 10.4058 23.6191 9.96955 23.2434C9.49219 22.8414 9.07581 22.3717 8.73355 21.8491C8.08453 20.8542 7.57798 19.7728 7.22875 18.6366L7.19995 18.5186H11.4912V23.9996Z" fill="black"/>
<path d="M12.4993 23.9996V18.5186H16.8001L16.7473 18.6847C16.4915 19.4905 16.1621 20.2709 15.7633 21.0158C15.3489 21.8242 14.7928 22.551 14.1217 23.1615C13.6642 23.5799 13.1044 23.869 12.4993 23.9996Z" fill="black"/>
<path d="M11.4912 0V5.48344H7.19995C7.19995 5.45936 7.19995 5.4401 7.21675 5.42083C7.52528 4.41542 7.95145 3.45023 8.48635 2.54545C8.88847 1.84486 9.41186 1.22182 10.032 0.705599C10.4543 0.355337 10.955 0.113201 11.4912 0Z" fill="black"/>
<path d="M16.7999 5.48299H12.5039V0.00195312C12.8 0.0592582 13.0857 0.16158 13.3511 0.305385C13.915 0.61921 14.411 1.04243 14.8103 1.55042C15.4435 2.34069 15.9526 3.22345 16.3199 4.16812C16.4879 4.57751 16.6271 4.99894 16.7783 5.41556C16.7999 5.43242 16.7999 5.45168 16.7999 5.48299Z" fill="black"/>
<path d="M8.868 0.383068C8.7648 0.493845 8.6616 0.602213 8.5608 0.715398C8.05928 1.28673 7.62818 1.91659 7.2768 2.59138C6.80645 3.48468 6.42848 4.42395 6.1488 5.39451C6.14675 5.40913 6.14181 5.42319 6.13428 5.43587C6.12674 5.44855 6.11675 5.45958 6.1049 5.46833C6.09305 5.47708 6.07958 5.48337 6.06527 5.48682C6.05096 5.49027 6.03612 5.49082 6.0216 5.48843H1.896C3.51095 2.98186 5.98817 1.15876 8.856 0.366211L8.868 0.383068Z" fill="black"/>
<path d="M1.89355 18.5025H6.02635C6.04042 18.5001 6.05482 18.5006 6.06869 18.5039C6.08256 18.5073 6.0956 18.5134 6.10704 18.522C6.11848 18.5305 6.12807 18.5413 6.13524 18.5537C6.14241 18.5661 6.14701 18.5798 6.14876 18.594C6.43099 19.5743 6.81384 20.5226 7.29115 21.4236C7.69673 22.2063 8.21331 22.9258 8.82475 23.5597L8.86075 23.6006C8.86214 23.611 8.86214 23.6215 8.86075 23.6319C5.98954 22.8383 3.50963 21.0125 1.89355 18.5025Z" fill="black"/>
<path d="M22.0921 5.49774H17.9737C17.9592 5.50013 17.9444 5.49958 17.93 5.49613C17.9157 5.49268 17.9023 5.48639 17.8904 5.47764C17.8786 5.46889 17.8686 5.45786 17.861 5.44518C17.8535 5.4325 17.8486 5.41844 17.8465 5.40382C17.5671 4.43318 17.1891 3.49388 16.7185 2.60069C16.3094 1.80866 15.7871 1.08091 15.1681 0.440543C15.1473 0.423847 15.1309 0.402369 15.1201 0.37793C16.068 0.624896 16.9803 0.993158 17.8345 1.47366C18.6928 1.95466 19.4892 2.53939 20.2057 3.21477C20.9245 3.89616 21.5579 4.66278 22.0921 5.49774Z" fill="black"/>
<path d="M15.1201 23.6172C15.2233 23.5064 15.3265 23.398 15.4273 23.2872C15.9233 22.7221 16.3503 22.0996 16.6993 21.4329C17.1749 20.5339 17.5569 19.5881 17.8393 18.6105C17.8396 18.5936 17.8436 18.5769 17.8512 18.5617C17.8587 18.5465 17.8696 18.5332 17.883 18.5228C17.8963 18.5124 17.9119 18.5051 17.9284 18.5016C17.9449 18.498 17.9621 18.4982 17.9785 18.5022H22.0801C21.2853 19.7523 20.2675 20.8447 19.0777 21.7243C17.8906 22.6023 16.5474 23.2448 15.1201 23.6172Z" fill="black"/>
</svg>
