<svg width="15" height="24" viewBox="0 0 15 24" fill="none" xmlns="http://www.w3.org/2000/svg">
<path fill-rule="evenodd" clip-rule="evenodd" d="M7.48852 3.7959L5.41797 10.1808H9.59199L7.51439 3.7959H7.48852ZM0.232115 20.7969C0.103651 20.7969 0 20.906 0 21.0411V23.7561C0 23.8916 0.103651 24.0001 0.232115 24.0001H14.7698C14.8972 24.0001 15 23.8916 15 23.7561V21.0411C15 20.906 14.8972 20.7969 14.7698 20.7969H0.232115ZM7.50089 0C9.09191 0 9.59204 1.17034 10.01 2.34212C10.1874 2.83754 14.3199 14.4606 14.4434 14.8093C14.4781 14.9055 14.4552 15.0661 14.3093 15.1234C14.1629 15.1806 12.0153 16.0384 11.8968 16.0841C11.778 16.13 11.6443 16.0622 11.6006 15.941C11.5567 15.8204 10.6667 13.2869 10.5661 13.0031H4.44328C4.34262 13.2869 3.44337 15.8249 3.40184 15.941C3.36066 16.057 3.23202 16.1353 3.10655 16.0841C2.98055 16.0326 0.823413 15.1742 0.696005 15.1234C0.572468 15.0752 0.515804 14.9311 0.559622 14.8093C0.711667 14.373 4.78098 2.93695 4.98951 2.34212C5.39197 1.18913 5.91058 0 7.50089 0Z" fill="#ED3523"/>
</svg>
